<?xml version="1.0" standalone="no"?>
<!DOCTYPE svg PUBLIC "-//W3C//DTD SVG 20010904//EN"
 "http://www.w3.org/TR/2001/REC-SVG-20010904/DTD/svg10.dtd">
<svg version="1.0" xmlns="http://www.w3.org/2000/svg"
 width="22.000000pt" height="40.000000pt" viewBox="0 0 22.000000 40.000000"
 preserveAspectRatio="xMidYMid meet">
<metadata>
Created by potrace 1.10, written by Peter Selinger 2001-2011
</metadata>
<g transform="translate(0.000000,40.000000) scale(0.100000,-0.100000)"
fill="#000000" stroke="none">
<path d="M190 378 c0 -19 -6 -27 -25 -32 -51 -13 -61 -106 -11 -106 15 0 26
-7 29 -20 4 -16 0 -20 -17 -20 -37 0 -46 -19 -46 -97 0 -65 -2 -73 -19 -73
-16 0 -19 9 -23 74 -2 41 -6 78 -10 82 -12 11 -68 14 -68 4 0 -6 13 -10 30
-10 l30 0 0 -85 0 -85 40 0 40 0 0 84 0 85 32 3 c29 3 32 6 32 38 0 32 -3 35
-32 38 -28 3 -32 7 -32 33 0 28 4 31 45 33 23 1 34 51 16 69 -8 8 -11 4 -11
-15z"/>
<path d="M81 364 c-13 -17 -21 -41 -21 -65 0 -37 -2 -39 -30 -39 -17 0 -30 -4
-30 -10 0 -14 54 -12 68 2 7 7 12 29 12 50 0 29 7 45 26 63 20 18 23 25 11 25
-8 0 -25 -12 -36 -26z"/>
</g>
</svg>
