<?xml version="1.0" encoding="UTF-8"?>
<svg width="12px" height="21px" viewBox="0 0 12 21" version="1.1" xmlns="http://www.w3.org/2000/svg" xmlns:xlink="http://www.w3.org/1999/xlink">
    <!-- Generator: Sketch 42 (36781) - http://www.bohemiancoding.com/sketch -->
    <title>facebook55@2x</title>
    <desc>Created with Sketch.</desc>
    <defs></defs>
    <g id="Welcome" stroke="none" stroke-width="1" fill="none" fill-rule="evenodd">
        <g id="Desktop-HD-Copy-4" transform="translate(-628.000000, -4382.000000)" stroke="#000000" stroke-width="0.5">
            <g id="social-media" transform="translate(629.000000, 4383.000000)">
                <path d="M9.99565625,0.00381756719 L7.50423668,0 C4.70554287,0 2.89637205,1.89071378 2.89637205,4.81649727 L2.89637205,7.03755787 L0.391212579,7.03755787 C0.175620972,7.03755787 2.00728323e-13,7.2154565 2.00728323e-13,7.43611188 L2.00728323e-13,10.654321 C2.00728323e-13,10.8739584 0.175620972,11.052875 0.391212579,11.052875 L2.89637205,11.052875 L2.89637205,19.1723314 C2.89637205,19.3919688 3.07199303,19.5708855 3.2885839,19.5708855 L6.55568358,19.5708855 C6.77227445,19.5708855 6.94789542,19.3919688 6.94789542,19.1723314 L6.94789542,11.052875 L9.8764938,11.052875 C10.0930847,11.052875 10.2679562,10.8739584 10.2679562,10.654321 L10.2697049,7.43611188 C10.2697049,7.33074703 10.2277357,7.22945424 10.1545395,7.15386641 C10.0813433,7.0792966 9.98191635,7.03755787 9.87749307,7.03755787 L6.94789542,7.03755787 L6.94789542,5.15473373 C6.94789542,4.2499703 7.15973978,3.79058972 8.31614018,3.79058972 L9.99465699,3.7895717 C10.2112479,3.7895717 10.3858696,3.61065505 10.3858696,3.39101768 L10.3858696,0.403644104 C10.3858696,0.182734216 10.2112479,0.00483558511 9.99565625,0.00381756719 Z" id="facebook55"></path>
            </g>
        </g>
    </g>
</svg>