<?xml version="1.0" encoding="UTF-8"?>
<svg width="15px" height="22px" viewBox="0 0 15 22" version="1.1" xmlns="http://www.w3.org/2000/svg" xmlns:xlink="http://www.w3.org/1999/xlink">
    <!-- Generator: Sketch 42 (36781) - http://www.bohemiancoding.com/sketch -->
    <title>google@2x</title>
    <desc>Created with Sketch.</desc>
    <defs></defs>
    <g id="Welcome" stroke="none" stroke-width="1" fill="none" fill-rule="evenodd">
        <g id="Desktop-HD-Copy-4" transform="translate(-738.000000, -4382.000000)" stroke="#000000" stroke-width="0.5">
            <g id="social-media" transform="translate(629.000000, 4383.000000)">
                <path d="M123.219292,0 L118.180443,0 C115.935773,0 114.381603,0.466040975 112.982877,1.56026904 C111.883586,2.45904391 111.226357,3.76421683 111.226357,5.05312351 C111.226357,7.03889699 112.825251,9.14989479 115.788783,9.14989479 C116.074309,9.14989479 116.389834,9.12175159 116.667725,9.09748131 L116.627364,9.1912059 C116.507917,9.46153548 116.395016,9.7166316 116.395016,10.1139928 C116.395016,10.8885762 116.78908,11.3667523 117.171692,11.8286622 L117.219688,11.8870141 L117.13433,11.8932108 C115.910411,11.9719601 113.632743,12.1201637 111.968944,13.0883929 C110.003528,14.1947561 109.851084,15.8033075 109.851084,16.2693484 C109.851084,18.1262829 111.677963,20 115.761239,20 C120.508017,20 122.992398,17.5210751 122.992398,15.071068 C122.993216,13.259834 121.871563,12.3651902 120.680642,11.4150347 L119.675981,10.675824 C119.365092,10.4318302 118.97839,10.1292263 118.97839,9.56739521 C118.97839,9.01563367 119.365092,8.6515795 119.705979,8.32986922 L119.742249,8.29552936 C120.826541,7.48660616 122.057005,6.5689831 122.057005,4.58501698 C122.057005,2.59020668 120.740365,1.55923626 120.106316,1.06401931 L121.778842,1.06401931 C121.799022,1.06401931 121.819476,1.05808084 121.836384,1.04801126 L123.276561,0.190805696 C123.317195,0.166535418 123.337375,0.11902764 123.323467,0.074618195 C123.309832,0.0304669447 123.267016,0 123.219292,0 Z M117.108696,18.9068047 C114.215523,18.9068047 112.271379,17.6279676 112.271379,15.7227508 C112.271379,14.4792864 113.066053,13.5756058 114.633041,13.0377868 C115.886958,12.6386181 117.506033,12.6182208 117.522123,12.6182208 C117.795923,12.6182208 117.934459,12.6182208 118.152627,12.6445566 C120.177766,14.0091143 121.151611,14.7253457 121.151611,16.0899033 C121.151611,17.8275519 119.602622,18.9068047 117.108696,18.9068047 Z M117.082243,8.41868811 C114.653221,8.41868811 113.645561,5.39600573 113.645561,3.77712655 C113.645561,2.95426085 113.842729,2.32271724 114.249612,1.8458321 C114.690583,1.32324654 115.447078,0.985528201 116.175485,0.985528201 C118.405156,0.985528201 119.637801,3.82360155 119.637801,5.78433018 C119.637801,6.09390532 119.637801,7.03476588 118.951665,7.68851422 C118.489423,8.12512103 117.738381,8.41868811 117.082243,8.41868811 Z" id="google"></path>
            </g>
        </g>
    </g>
</svg>