<?xml version="1.0" encoding="UTF-8"?>
<svg width="19px" height="21px" viewBox="0 0 19 21" version="1.1" xmlns="http://www.w3.org/2000/svg" xmlns:xlink="http://www.w3.org/1999/xlink">
    <!-- Generator: Sketch 42 (36781) - http://www.bohemiancoding.com/sketch -->
    <title>linkedin-logo@2x</title>
    <desc>Created with Sketch.</desc>
    <defs></defs>
    <g id="Welcome" stroke="none" stroke-width="1" fill="none" fill-rule="evenodd">
        <g id="Desktop-HD-Copy-4" transform="translate(-792.000000, -4383.000000)" stroke="#000000" stroke-width="0.5">
            <g id="social-media" transform="translate(629.000000, 4383.000000)">
                <path d="M181.74449,12.6900463 L181.74449,20 L177.796678,20 L177.796678,13.1801957 C177.796678,11.4672814 177.226273,10.2980623 175.797449,10.2980623 C174.706263,10.2980623 174.057843,11.0853219 173.77213,11.847868 C173.66828,12.1202648 173.641167,12.4989292 173.641167,12.8808888 L173.641167,20 L169.692587,20 C169.692587,20 169.745535,8.44867505 169.692587,7.25282034 L173.641167,7.25282034 L173.641167,9.05909641 C173.633237,9.07310068 173.622239,9.08710495 173.615332,9.10083463 L173.641167,9.10083463 L173.641167,9.05909641 C174.165785,8.19247931 175.101965,6.95351342 177.19916,6.95351342 C179.797186,6.95351342 181.74449,8.77489214 181.74449,12.6900463 Z M165.561888,1.10769231 C164.211078,1.10769231 163.327847,2.0591588 163.327847,3.30993221 C163.327847,4.53379546 164.186011,5.5129959 165.509963,5.5129959 L165.536053,5.5129959 C166.912953,5.5129959 167.769071,4.53379546 167.769071,3.30993221 C167.743237,2.0591588 166.912953,1.10769231 165.561888,1.10769231 Z M163.562659,20 L167.509448,20 L167.509448,7.25282034 L163.562659,7.25282034 L163.562659,20 Z" id="linkedin-logo"></path>
            </g>
        </g>
    </g>
</svg>