<?xml version="1.0" encoding="UTF-8"?>
<svg width="21px" height="18px" viewBox="0 0 21 18" version="1.1" xmlns="http://www.w3.org/2000/svg" xmlns:xlink="http://www.w3.org/1999/xlink">
    <!-- Generator: Sketch 42 (36781) - http://www.bohemiancoding.com/sketch -->
    <title>twitter1@2x</title>
    <desc>Created with Sketch.</desc>
    <defs></defs>
    <g id="Welcome" stroke="none" stroke-width="1" fill="none" fill-rule="evenodd">
        <g id="Desktop-HD-Copy-4" transform="translate(-679.000000, -4384.000000)" stroke="#000000" stroke-width="0.5">
            <g id="social-media" transform="translate(629.000000, 4383.000000)">
                <path d="M69.8510838,3.67093971 C69.1379219,3.9974791 68.3654566,4.22354482 67.5580174,4.32244858 C68.3837038,3.81223079 69.0132326,3.00373184 69.3158323,2.0398127 C68.5433669,2.51235287 67.6887891,2.85616116 66.7733873,3.03983956 C66.0495812,2.24232992 65.00949,1.73996163 63.8629568,1.73996163 C61.6596059,1.73996163 59.871379,3.58616507 59.871379,5.86095144 C59.871379,6.18592092 59.9078735,6.49833119 59.9732593,6.79975216 C56.6522666,6.62706307 53.7129447,4.98965645 51.7407251,2.49351406 C51.3955487,3.1010657 51.1993911,3.81223079 51.1993911,4.56735312 C51.1993911,5.99596291 51.9064706,7.25973312 52.9754532,7.99444673 C52.3215947,7.97717782 51.7103131,7.78721982 51.1704997,7.47951924 L51.1704997,7.52975607 C51.1704997,9.52823989 52.5481643,11.1954746 54.371365,11.5769605 C54.0383533,11.6680148 53.6825327,11.7166817 53.3206296,11.7166817 C53.0651686,11.7166817 52.8157901,11.6931332 52.5664115,11.6444663 C53.0773335,13.2818729 54.5492753,14.4702879 56.2964459,14.5079655 C54.9294256,15.6116058 53.2065845,16.2678244 51.3362452,16.2678244 C51.0153984,16.2678244 50.700634,16.2489855 50.3858696,16.2128778 C52.1558492,17.3840239 54.2527581,18.063791 56.5093301,18.063791 C63.850792,18.063791 67.8666994,11.7841874 67.8666994,6.33977121 L67.8545346,5.80600491 C68.6391648,5.22357168 69.3158323,4.49984738 69.8510838,3.67093971 Z" id="twitter1"></path>
            </g>
        </g>
    </g>
</svg>